<svg width="36" height="36" viewBox="0 0 36 36" fill="none" xmlns="http://www.w3.org/2000/svg">
<g id="weight">
<g id="Group">
<path id="Vector" d="M15.9495 0.615292C11.4785 1.27834 7.79691 3.76071 6.4423 7.01123C6.01016 8.03814 5.89381 8.66884 5.89381 9.90598C5.90212 10.8197 5.93536 11.1593 6.07664 11.6525C6.36751 12.6228 6.57527 13.1161 7.00742 13.8115L7.40632 14.4583L6.95755 15.0082C3.40897 19.4231 3.01837 25.633 5.97691 30.525C7.08221 32.3605 8.88559 34.1637 10.6474 35.2148L11.171 35.5221L18.3346 35.4655L25.5066 35.4008L25.8473 35.2148C27.0357 34.5437 28.7144 33.0478 29.6535 31.8349C31.0663 29.9913 31.9888 27.8405 32.3794 25.5118C32.5123 24.6789 32.5123 22.2127 32.3711 21.4284C31.9472 19.0107 31.0414 16.9407 29.612 15.1052C29.3377 14.7575 29.1217 14.4664 29.1217 14.4422C29.1217 14.426 29.2712 14.1753 29.4458 13.8923C29.853 13.2455 30.2186 12.4126 30.4181 11.6849C30.6425 10.8763 30.6425 8.85482 30.4181 8.04623C29.6203 5.17574 27.2269 2.78231 23.8445 1.46431C22.8971 1.09236 21.2765 0.696152 20.2294 0.566776C19.2571 0.453575 16.8554 0.477833 15.9495 0.615292ZM21.0106 1.93329C25.4484 2.79848 28.6978 5.51534 29.2962 8.8629C29.4291 9.61489 29.346 10.8925 29.1217 11.604C28.8973 12.2994 28.4818 13.1161 27.9914 13.8115C27.792 14.0945 27.6258 14.4179 27.6258 14.523C27.6258 14.6281 27.8003 14.9031 28.0496 15.178C30.1272 17.4825 31.2242 20.3691 31.2242 23.4903C31.2159 27.04 29.853 30.1531 27.2269 32.595C26.7781 33.0155 26.1382 33.5411 25.7975 33.7675L25.1742 34.1879L18.3014 34.2122L11.4369 34.2445L10.905 33.9049C8.977 32.6516 7.24011 30.5816 6.27609 28.3823C5.06276 25.6007 4.9381 22.3744 5.92705 19.4797C6.45061 17.9757 7.14869 16.7467 8.21244 15.4529C8.64458 14.9354 8.84404 14.6281 8.84404 14.4826C8.84404 14.3613 8.62796 13.9651 8.34541 13.5527C7.34815 12.1053 6.94093 10.4963 7.18194 8.97611C7.43125 7.43979 8.12933 6.17839 9.41746 4.92507C11.0962 3.29981 13.4397 2.22438 16.1905 1.82009C17.3291 1.65029 19.8471 1.71497 21.0106 1.93329Z" fill="black"/>
<path id="Vector_2" d="M16.3229 3.35635C12.9155 3.91428 10.2479 5.80638 9.37527 8.28875C9.17582 8.84667 9.14258 9.06499 9.14258 9.86549C9.14258 10.666 9.17582 10.8843 9.37527 11.4422C9.49993 11.798 9.73262 12.2913 9.89052 12.5419C10.3227 13.2373 10.5138 13.2616 11.3698 12.7441C12.6496 11.9597 14.1206 11.3856 15.6497 11.0703C16.6802 10.8601 18.6581 10.7792 19.78 10.9086C21.5335 11.1107 23.4366 11.7414 24.9575 12.639C25.3896 12.8896 25.8301 13.0999 25.9381 13.0999C26.5697 13.0999 27.3758 11.2805 27.3758 9.86549C27.3758 6.72008 24.3674 4.02748 20.1041 3.35635C19.1983 3.2108 17.1955 3.2108 16.3229 3.35635ZM20.4365 4.65009C21.866 4.95736 23.179 5.53954 24.168 6.3077C25.4976 7.33461 26.2123 8.76581 26.096 10.1485C26.0544 10.6983 25.8467 11.4422 25.722 11.5231C25.6888 11.5393 25.2234 11.3452 24.6915 11.0865C23.5862 10.5528 22.3313 10.1242 21.0598 9.84932C20.287 9.68761 19.9628 9.66335 18.2343 9.67143C16.5306 9.67143 16.1733 9.69569 15.4336 9.84932C14.1538 10.1242 13.1565 10.4639 11.9266 11.046C10.6883 11.6363 10.7548 11.6444 10.5304 10.9167C10.2396 9.97061 10.4224 8.7173 10.9875 7.77125C11.2867 7.26992 12.1094 6.43708 12.7078 6.0247C13.8463 5.24036 14.8436 4.88458 16.9877 4.49646C17.4281 4.4156 19.8714 4.5288 20.4365 4.65009Z" fill="black"/>
<path id="Vector_3" d="M19.0827 15.0808C18.85 15.3719 18.85 15.6468 19.091 15.8813C19.2489 16.035 19.4068 16.0754 19.9802 16.1158C21.0938 16.1967 22.1576 16.5201 23.1133 17.07C23.7947 17.4743 24.8335 18.4526 25.2989 19.1561C25.9887 20.1669 26.4624 21.6142 26.4624 22.6816C26.4624 23.0535 26.4956 23.1667 26.6702 23.3284C26.9361 23.5953 27.2851 23.5953 27.5428 23.3284C27.7256 23.1425 27.7339 23.0939 27.684 22.3015C27.4513 18.388 24.1022 15.1213 20.0966 14.9029L19.2655 14.8544L19.0827 15.0808Z" fill="black"/>
</g>
</g>
</svg>
